<svg width="20" height="20" viewBox="0 0 20 20" fill="none" xmlns="http://www.w3.org/2000/svg">
    <path d="M16.3257 10.0431L10.1875 16.1327L4.04831 10.0421L4.04809 10.0419C3.83919 9.83477 3.65701 9.60233 3.5058 9.35L3.50581 9.35L3.50415 9.34725C3.09728 8.6732 2.92928 7.88177 3.02723 7.10056C3.12518 6.31935 3.48338 5.59389 4.04406 5.04116L4.04407 5.04116L4.04736 5.03789C4.37939 4.70751 4.77327 4.4458 5.20648 4.26772C5.6397 4.08964 6.10376 3.99867 6.57215 4.00001V4.00002H6.57502C8.0754 4.00002 9.00711 4.86934 9.40096 5.37017L10.1867 6.36932L10.9728 5.3705C11.3687 4.86753 12.2995 4.00002 13.799 4.00002C14.7571 4.00002 15.6517 4.36842 16.3278 5.039L16.3299 5.04106C16.8907 5.5941 17.249 6.31993 17.3468 7.10149C17.4446 7.88305 17.2763 8.67478 16.8691 9.34898L16.8668 9.35266C16.7163 9.60437 16.5347 9.83615 16.3263 10.0426L16.3257 10.0431Z" stroke="currentColor" stroke-width="2"/>
</svg>
